<svg width="150" height="36" viewBox="0 0 150 36" fill="none" xmlns="http://www.w3.org/2000/svg">
<g clip-path="url(#clip0_5632_3281)">
<path d="M17.9658 0C8.03826 0 0 8.07727 0 17.9911C0 27.9049 8.03826 36 17.9658 36C27.9289 36 35.9672 27.9227 35.9672 17.9911C36.0029 8.07727 27.9111 0 17.9658 0ZM26.8774 27.5305C26.8774 28.5468 26.0753 29.367 25.0594 29.367L21.4769 29.3314H10.2662C9.62452 29.3314 9.08983 28.7964 9.08983 28.1545V24.7667C9.07201 24.2853 9.39282 23.8217 9.89187 23.6612L21.4948 19.8098L22.5998 16.1545C22.7602 15.6731 23.2236 15.3522 23.7405 15.3522H25.7367C26.3961 15.3522 26.913 15.8871 26.913 16.529L26.8774 27.5305ZM26.8774 11.2333C26.8952 11.7682 26.5566 12.1961 26.0753 12.3566L14.4903 16.2437L13.3674 19.8633C13.2248 20.3626 12.7614 20.7013 12.2624 20.7013H10.2662C9.62452 20.7013 9.08983 20.1664 9.08983 19.5245L9.07201 12.0892V8.46954C9.08983 7.47103 9.9097 6.66865 10.9078 6.65082L14.4903 6.66865L25.6832 6.68648C26.3427 6.68648 26.8952 7.23923 26.8952 7.89896L26.8774 11.2333Z" fill="#8759FF"/>
<path d="M53.0597 16.2438C52.525 15.5305 51.8656 15.0313 51.117 14.7282C50.3684 14.4429 49.3882 14.1576 48.2118 13.9079C47.392 13.7296 46.7681 13.5513 46.3047 13.4087C45.8413 13.266 45.4671 13.0521 45.1641 12.749C44.8611 12.4637 44.7007 12.0714 44.7007 11.59C44.7007 11.055 44.9145 10.6449 45.3423 10.3418C45.77 10.0387 46.3582 9.87823 47.089 9.87823C47.9088 9.87823 48.5861 10.0744 49.0852 10.4845C49.5842 10.8946 49.8694 11.4295 49.9229 12.1071H53.4875C53.4518 11.0194 53.1667 10.0565 52.632 9.23633C52.0973 8.41612 51.3309 7.77422 50.3863 7.31062C49.4416 6.86485 48.3366 6.63306 47.089 6.63306C45.9305 6.63306 44.8967 6.84702 43.9699 7.27496C43.0609 7.70289 42.348 8.2913 41.8311 9.02236C41.3142 9.77124 41.0647 10.6271 41.0647 11.59C41.0647 12.8381 41.3321 13.8188 41.8668 14.532C42.4015 15.2452 43.0431 15.7623 43.8095 16.0833C44.5581 16.3864 45.5383 16.6895 46.7147 16.9748C47.4989 17.1709 48.1049 17.3493 48.5326 17.4919C48.9604 17.6345 49.3347 17.8485 49.6377 18.1338C49.9229 18.4013 50.0833 18.7579 50.0833 19.2215C50.0833 19.8634 49.8337 20.3626 49.3169 20.7192C48.8178 21.0758 48.1405 21.2363 47.285 21.2363C46.376 21.2363 45.6275 20.9689 45.0749 20.4518C44.5224 19.9347 44.2016 19.2215 44.1303 18.3478H40.5479C40.6013 19.5781 40.9043 20.6657 41.4747 21.5929C42.0628 22.5201 42.8292 23.2334 43.8273 23.7326C44.8254 24.2319 45.9839 24.4815 47.285 24.4815C48.5861 24.4815 49.7446 24.2675 50.7249 23.8218C51.723 23.3938 52.4716 22.7698 53.0241 21.9852C53.5588 21.1828 53.8261 20.2556 53.8261 19.168C53.8618 17.9198 53.5944 16.957 53.0597 16.2438Z" fill="#8759FF"/>
<path d="M64.3596 11.7327V18.6153C64.3596 19.1324 64.2526 19.6316 64.0209 20.0417C63.8071 20.4697 63.4862 20.7906 63.0941 21.0402C62.702 21.2899 62.2564 21.3969 61.7574 21.3969C61.0445 21.3969 60.4563 21.1472 60.0107 20.6658C59.5651 20.1844 59.3334 19.5603 59.3334 18.7758V11.7327H55.8579V19.5603C55.8579 20.5232 56.054 21.379 56.4461 22.1279C56.8382 22.8768 57.3907 23.4474 58.0858 23.8753C58.7809 24.3032 59.6008 24.4994 60.5098 24.4994C61.3831 24.4994 62.1317 24.3211 62.809 23.9823C63.4684 23.6435 63.9853 23.1621 64.3418 22.5558V24.3032H67.7995V11.7327H64.3596Z" fill="#8759FF"/>
<path d="M82.7711 14.5854C82.2899 13.6047 81.6305 12.838 80.7571 12.3209C79.8838 11.8038 78.8679 11.5186 77.7094 11.5186C76.9251 11.5186 76.23 11.6612 75.6062 11.9287C74.9824 12.1961 74.4834 12.5884 74.1269 13.0876V11.7147H70.6514V29.3492H74.1269V23.1441C74.4477 23.5542 74.8933 23.8752 75.4636 24.107C76.034 24.3388 76.6934 24.4636 77.4242 24.4636C78.6183 24.4636 79.6699 24.1961 80.5789 23.6612C81.4879 23.1263 82.2008 22.3774 82.7177 21.3967C83.2167 20.416 83.4662 19.2749 83.4662 17.9911C83.4841 16.7073 83.2524 15.5661 82.7711 14.5854ZM79.6699 19.8276C79.4026 20.3447 79.0461 20.7548 78.6005 21.0401C78.1371 21.3254 77.6202 21.468 77.0142 21.468C76.0874 21.468 75.3389 21.1471 74.7685 20.523C74.1982 19.8811 73.9308 19.0252 73.9308 17.9732C73.9308 17.2957 74.0556 16.6894 74.3051 16.1723C74.5725 15.6553 74.9289 15.2452 75.3745 14.942C75.8379 14.6567 76.3726 14.5141 76.9786 14.5141C77.9054 14.5141 78.654 14.835 79.2065 15.477C79.759 16.1189 80.0442 16.9747 80.0442 18.0267C80.0442 18.7043 79.9194 19.3105 79.6699 19.8276Z" fill="#8759FF"/>
<path d="M93.9819 20.0059C93.8393 20.5408 93.5542 20.9509 93.1086 21.2184C92.663 21.5037 92.0927 21.6285 91.3975 21.6285C90.7381 21.6285 90.1678 21.4859 89.6865 21.1649C89.2053 20.8618 88.8488 20.4339 88.5993 19.8633C88.4567 19.5245 88.3498 19.1501 88.2963 18.7578H97.297C97.3149 18.4012 97.3327 18.0267 97.3505 17.6345C97.3505 16.6181 97.1366 15.6196 96.691 14.6924C96.2633 13.7652 95.5682 12.9985 94.6414 12.4101C93.7146 11.8038 92.5561 11.5186 91.1658 11.5186C89.8291 11.5186 88.6884 11.8217 87.7438 12.4457C86.7992 13.052 86.1041 13.8544 85.6407 14.835C85.1951 15.8157 84.9634 16.8677 84.9634 17.9732C84.9634 19.0609 85.2129 20.1129 85.7119 21.1114C86.211 22.1099 86.9417 22.9301 87.922 23.5364C88.8845 24.1605 90.0608 24.4814 91.4154 24.4814C92.4313 24.4814 93.3759 24.3031 94.2314 23.9287C95.087 23.572 95.7821 23.0371 96.3346 22.3774C96.8871 21.6998 97.2436 20.9153 97.3861 20.0238H93.9819V20.0059ZM88.5637 15.7266C88.7775 15.156 89.0984 14.7459 89.5439 14.4606C89.9717 14.1931 90.5242 14.0505 91.148 14.0505C91.9501 14.0505 92.5917 14.2823 93.0729 14.7637C93.572 15.2452 93.8393 15.8336 93.875 16.5646H88.332C88.4033 16.2615 88.4745 15.9762 88.5637 15.7266Z" fill="#8759FF"/>
<path d="M106.191 11.7327C105.389 11.7327 104.747 11.8931 104.266 12.1963C103.767 12.5172 103.357 13.0521 103.036 13.8188V11.7327H99.5605V24.2854H103.018V18.1873C103.018 17.0818 103.232 16.2081 103.642 15.5841C104.052 14.96 104.676 14.6569 105.513 14.6569H107.581V11.7327H106.191Z" fill="#8759FF"/>
<path d="M118.792 13.7474C118.328 13.052 117.669 12.4992 116.831 12.107C115.994 11.7147 115.049 11.5186 113.997 11.5186C112.892 11.5186 111.912 11.7147 111.092 12.107C110.272 12.4992 109.613 13.052 109.149 13.7296C108.686 14.4249 108.437 15.1917 108.401 16.0475H111.484C111.502 15.6909 111.591 15.3521 111.769 15.049C111.948 14.7637 112.197 14.5141 112.554 14.318C112.892 14.1397 113.32 14.0505 113.783 14.0505C114.479 14.0505 115.031 14.211 115.423 14.5319C115.833 14.8529 116.029 15.2808 116.029 15.8157C116.029 16.101 115.94 16.315 115.78 16.4933C115.619 16.6538 115.388 16.7429 115.085 16.7429H112.999C111.609 16.7429 110.486 17.0995 109.649 17.8128C108.811 18.526 108.401 19.4888 108.401 20.7013C108.401 21.4145 108.561 22.0564 108.9 22.627C109.239 23.1976 109.72 23.6434 110.344 23.9822C110.985 24.3031 111.698 24.4636 112.482 24.4636C113.356 24.4636 114.104 24.2853 114.728 23.9465C115.37 23.5899 115.798 23.1263 116.011 22.5557V24.2853H119.469V16.208C119.505 15.2808 119.273 14.4606 118.792 13.7474ZM116.047 19.1144C116.047 19.9524 115.815 20.63 115.334 21.1649C114.871 21.6998 114.229 21.9673 113.409 21.9673C112.91 21.9673 112.518 21.8425 112.197 21.575C111.894 21.3254 111.734 20.9866 111.734 20.5587C111.734 20.0772 111.894 19.685 112.233 19.3997C112.572 19.1144 112.999 18.9718 113.534 18.9718H116.047V19.1144Z" fill="#8759FF"/>
<path d="M134.298 14.5854C133.835 13.6047 133.157 12.838 132.284 12.3209C131.411 11.786 130.395 11.5186 129.236 11.5186C128.452 11.5186 127.757 11.6612 127.133 11.9287C126.509 12.1961 126.01 12.5884 125.654 13.0876V11.7147H122.178V29.3492H125.654V23.1441C125.975 23.5542 126.42 23.8752 127.008 24.107C127.596 24.3388 128.238 24.4636 128.969 24.4636C130.163 24.4636 131.215 24.1961 132.141 23.6612C133.05 23.1263 133.763 22.3774 134.262 21.3967C134.779 20.416 135.029 19.2749 135.029 17.9911C135.011 16.7073 134.779 15.5661 134.298 14.5854ZM131.179 19.8276C130.929 20.3447 130.573 20.7548 130.11 21.0401C129.664 21.3254 129.129 21.468 128.523 21.468C127.596 21.468 126.848 21.1471 126.278 20.523C125.707 19.8811 125.422 19.0252 125.422 17.9732C125.422 17.2957 125.547 16.6894 125.814 16.1723C126.064 15.6553 126.42 15.2452 126.884 14.942C127.329 14.6567 127.882 14.5141 128.488 14.5141C129.414 14.5141 130.163 14.835 130.716 15.477C131.268 16.1189 131.553 16.9747 131.553 18.0267C131.571 18.7043 131.446 19.3105 131.179 19.8276Z" fill="#8759FF"/>
<path d="M149.287 14.5854C148.824 13.6047 148.147 12.838 147.273 12.3209C146.4 11.786 145.384 11.5186 144.225 11.5186C143.441 11.5186 142.746 11.6612 142.122 11.9287C141.499 12.1961 140.999 12.5884 140.643 13.0876V11.7147H137.167V29.3492H140.625V23.1441C140.946 23.5542 141.392 23.8752 141.98 24.107C142.568 24.3388 143.21 24.4636 143.94 24.4636C145.134 24.4636 146.186 24.1961 147.095 23.6612C148.004 23.1263 148.717 22.3774 149.216 21.3967C149.715 20.416 149.982 19.2749 149.982 17.9911C150 16.7073 149.751 15.5661 149.287 14.5854ZM146.168 19.8276C145.919 20.3447 145.562 20.7548 145.099 21.0401C144.653 21.3254 144.119 21.468 143.513 21.468C142.586 21.468 141.837 21.1471 141.267 20.523C140.696 19.8811 140.411 19.0252 140.411 17.9732C140.411 17.2957 140.554 16.6894 140.803 16.1723C141.053 15.6553 141.409 15.2452 141.873 14.942C142.318 14.6567 142.871 14.5141 143.477 14.5141C144.404 14.5141 145.152 14.835 145.705 15.477C146.257 16.1189 146.542 16.9747 146.542 18.0267C146.56 18.7043 146.436 19.3105 146.168 19.8276Z" fill="#8759FF"/>
</g>
<defs>
<clipPath id="clip0_5632_3281">
<rect width="150" height="36" fill="white"/>
</clipPath>
</defs>
</svg>
