<svg  viewBox="0 0 150 40" fill="none" xmlns="http://www.w3.org/2000/svg">
<g clip-path="url(#clip0_5632_3280)">
<path d="M17.9658 2C8.03826 2 0 10.0773 0 19.9911C0 29.9049 8.03826 38 17.9658 38C27.9289 38 35.9672 29.9227 35.9672 19.9911C36.0029 10.0773 27.9111 2 17.9658 2ZM26.8774 29.5305C26.8774 30.5468 26.0753 31.367 25.0594 31.367L21.4769 31.3314H10.2662C9.62452 31.3314 9.08983 30.7964 9.08983 30.1545V26.7667C9.07201 26.2853 9.39282 25.8217 9.89187 25.6612L21.4948 21.8098L22.5998 18.1545C22.7602 17.6731 23.2236 17.3522 23.7405 17.3522H25.7367C26.3961 17.3522 26.913 17.8871 26.913 18.529L26.8774 29.5305ZM26.8774 13.2333C26.8952 13.7682 26.5566 14.1961 26.0753 14.3566L14.4903 18.2437L13.3674 21.8633C13.2248 22.3626 12.7614 22.7013 12.2624 22.7013H10.2662C9.62452 22.7013 9.08983 22.1664 9.08983 21.5245L9.07201 14.0892V10.4695C9.08983 9.47103 9.9097 8.66865 10.9078 8.65082L14.4903 8.66865L25.6832 8.68648C26.3427 8.68648 26.8952 9.23923 26.8952 9.89896L26.8774 13.2333Z" fill="#8759FF"/>
<path d="M53.0597 18.2438C52.525 17.5305 51.8656 17.0313 51.117 16.7282C50.3684 16.4429 49.3882 16.1576 48.2118 15.9079C47.392 15.7296 46.7681 15.5513 46.3047 15.4087C45.8413 15.266 45.4671 15.0521 45.1641 14.749C44.8611 14.4637 44.7007 14.0714 44.7007 13.59C44.7007 13.055 44.9145 12.6449 45.3423 12.3418C45.77 12.0387 46.3582 11.8782 47.089 11.8782C47.9088 11.8782 48.5861 12.0744 49.0852 12.4845C49.5842 12.8946 49.8694 13.4295 49.9229 14.1071H53.4875C53.4518 13.0194 53.1667 12.0565 52.632 11.2363C52.0973 10.4161 51.3309 9.77422 50.3863 9.31062C49.4416 8.86485 48.3366 8.63306 47.089 8.63306C45.9305 8.63306 44.8967 8.84702 43.9699 9.27496C43.0609 9.70289 42.348 10.2913 41.8311 11.0224C41.3142 11.7712 41.0647 12.6271 41.0647 13.59C41.0647 14.8381 41.3321 15.8188 41.8668 16.532C42.4015 17.2452 43.0431 17.7623 43.8095 18.0833C44.5581 18.3864 45.5383 18.6895 46.7147 18.9748C47.4989 19.1709 48.1049 19.3493 48.5326 19.4919C48.9604 19.6345 49.3347 19.8485 49.6377 20.1338C49.9229 20.4013 50.0833 20.7579 50.0833 21.2215C50.0833 21.8634 49.8337 22.3626 49.3169 22.7192C48.8178 23.0758 48.1405 23.2363 47.285 23.2363C46.376 23.2363 45.6275 22.9689 45.0749 22.4518C44.5224 21.9347 44.2016 21.2215 44.1303 20.3478H40.5479C40.6013 21.5781 40.9043 22.6657 41.4747 23.5929C42.0628 24.5201 42.8292 25.2334 43.8273 25.7326C44.8254 26.2319 45.9839 26.4815 47.285 26.4815C48.5861 26.4815 49.7446 26.2675 50.7249 25.8218C51.723 25.3938 52.4716 24.7698 53.0241 23.9852C53.5588 23.1828 53.8261 22.2556 53.8261 21.168C53.8618 19.9198 53.5944 18.957 53.0597 18.2438Z" fill="#8759FF"/>
<path d="M64.3596 13.7327V20.6153C64.3596 21.1324 64.2526 21.6316 64.0209 22.0417C63.8071 22.4697 63.4862 22.7906 63.0941 23.0402C62.702 23.2899 62.2564 23.3969 61.7574 23.3969C61.0445 23.3969 60.4563 23.1472 60.0107 22.6658C59.5651 22.1844 59.3334 21.5603 59.3334 20.7758V13.7327H55.8579V21.5603C55.8579 22.5232 56.054 23.379 56.4461 24.1279C56.8382 24.8768 57.3907 25.4474 58.0858 25.8753C58.7809 26.3032 59.6008 26.4994 60.5098 26.4994C61.3831 26.4994 62.1317 26.3211 62.809 25.9823C63.4684 25.6435 63.9853 25.1621 64.3418 24.5558V26.3032H67.7995V13.7327H64.3596Z" fill="#8759FF"/>
<path d="M82.7711 16.5854C82.2899 15.6047 81.6305 14.838 80.7571 14.3209C79.8838 13.8038 78.8679 13.5186 77.7094 13.5186C76.9251 13.5186 76.23 13.6612 75.6062 13.9287C74.9824 14.1961 74.4834 14.5884 74.1269 15.0876V13.7147H70.6514V31.3492H74.1269V25.1441C74.4477 25.5542 74.8933 25.8752 75.4636 26.107C76.034 26.3388 76.6934 26.4636 77.4242 26.4636C78.6183 26.4636 79.6699 26.1961 80.5789 25.6612C81.4879 25.1263 82.2008 24.3774 82.7177 23.3967C83.2167 22.416 83.4662 21.2749 83.4662 19.9911C83.4841 18.7073 83.2524 17.5661 82.7711 16.5854ZM79.6699 21.8276C79.4026 22.3447 79.0461 22.7548 78.6005 23.0401C78.1371 23.3254 77.6202 23.468 77.0142 23.468C76.0874 23.468 75.3389 23.1471 74.7685 22.523C74.1982 21.8811 73.9308 21.0252 73.9308 19.9732C73.9308 19.2957 74.0556 18.6894 74.3051 18.1723C74.5725 17.6553 74.9289 17.2452 75.3745 16.942C75.8379 16.6567 76.3726 16.5141 76.9786 16.5141C77.9054 16.5141 78.654 16.835 79.2065 17.477C79.759 18.1189 80.0442 18.9747 80.0442 20.0267C80.0442 20.7043 79.9194 21.3105 79.6699 21.8276Z" fill="#8759FF"/>
<path d="M93.9819 22.0059C93.8393 22.5408 93.5542 22.9509 93.1086 23.2184C92.663 23.5037 92.0927 23.6285 91.3975 23.6285C90.7381 23.6285 90.1678 23.4859 89.6865 23.1649C89.2053 22.8618 88.8488 22.4339 88.5993 21.8633C88.4567 21.5245 88.3498 21.1501 88.2963 20.7578H97.297C97.3149 20.4012 97.3327 20.0267 97.3505 19.6345C97.3505 18.6181 97.1366 17.6196 96.691 16.6924C96.2633 15.7652 95.5682 14.9985 94.6414 14.4101C93.7146 13.8038 92.5561 13.5186 91.1658 13.5186C89.8291 13.5186 88.6884 13.8217 87.7438 14.4457C86.7992 15.052 86.1041 15.8544 85.6407 16.835C85.1951 17.8157 84.9634 18.8677 84.9634 19.9732C84.9634 21.0609 85.2129 22.1129 85.7119 23.1114C86.211 24.1099 86.9417 24.9301 87.922 25.5364C88.8845 26.1605 90.0608 26.4814 91.4154 26.4814C92.4313 26.4814 93.3759 26.3031 94.2314 25.9287C95.087 25.572 95.7821 25.0371 96.3346 24.3774C96.8871 23.6998 97.2436 22.9153 97.3861 22.0238H93.9819V22.0059ZM88.5637 17.7266C88.7775 17.156 89.0984 16.7459 89.5439 16.4606C89.9717 16.1931 90.5242 16.0505 91.148 16.0505C91.9501 16.0505 92.5917 16.2823 93.0729 16.7637C93.572 17.2452 93.8393 17.8336 93.875 18.5646H88.332C88.4033 18.2615 88.4745 17.9762 88.5637 17.7266Z" fill="#8759FF"/>
<path d="M106.191 13.7327C105.389 13.7327 104.747 13.8931 104.266 14.1963C103.767 14.5172 103.357 15.0521 103.036 15.8188V13.7327H99.5605V26.2854H103.018V20.1873C103.018 19.0818 103.232 18.2081 103.642 17.5841C104.052 16.96 104.676 16.6569 105.513 16.6569H107.581V13.7327H106.191Z" fill="#8759FF"/>
<path d="M118.792 15.7474C118.328 15.052 117.669 14.4992 116.831 14.107C115.994 13.7147 115.049 13.5186 113.997 13.5186C112.892 13.5186 111.912 13.7147 111.092 14.107C110.272 14.4992 109.613 15.052 109.149 15.7296C108.686 16.4249 108.437 17.1917 108.401 18.0475H111.484C111.502 17.6909 111.591 17.3521 111.769 17.049C111.948 16.7637 112.197 16.5141 112.554 16.318C112.892 16.1397 113.32 16.0505 113.783 16.0505C114.479 16.0505 115.031 16.211 115.423 16.5319C115.833 16.8529 116.029 17.2808 116.029 17.8157C116.029 18.101 115.94 18.315 115.78 18.4933C115.619 18.6538 115.388 18.7429 115.085 18.7429H112.999C111.609 18.7429 110.486 19.0995 109.649 19.8128C108.811 20.526 108.401 21.4888 108.401 22.7013C108.401 23.4145 108.561 24.0564 108.9 24.627C109.239 25.1976 109.72 25.6434 110.344 25.9822C110.985 26.3031 111.698 26.4636 112.482 26.4636C113.356 26.4636 114.104 26.2853 114.728 25.9465C115.37 25.5899 115.798 25.1263 116.011 24.5557V26.2853H119.469V18.208C119.505 17.2808 119.273 16.4606 118.792 15.7474ZM116.047 21.1144C116.047 21.9524 115.815 22.63 115.334 23.1649C114.871 23.6998 114.229 23.9673 113.409 23.9673C112.91 23.9673 112.518 23.8425 112.197 23.575C111.894 23.3254 111.734 22.9866 111.734 22.5587C111.734 22.0772 111.894 21.685 112.233 21.3997C112.572 21.1144 112.999 20.9718 113.534 20.9718H116.047V21.1144Z" fill="#8759FF"/>
<path d="M134.298 16.5854C133.835 15.6047 133.157 14.838 132.284 14.3209C131.411 13.786 130.395 13.5186 129.236 13.5186C128.452 13.5186 127.757 13.6612 127.133 13.9287C126.509 14.1961 126.01 14.5884 125.654 15.0876V13.7147H122.178V31.3492H125.654V25.1441C125.975 25.5542 126.42 25.8752 127.008 26.107C127.596 26.3388 128.238 26.4636 128.969 26.4636C130.163 26.4636 131.215 26.1961 132.141 25.6612C133.05 25.1263 133.763 24.3774 134.262 23.3967C134.779 22.416 135.029 21.2749 135.029 19.9911C135.011 18.7073 134.779 17.5661 134.298 16.5854ZM131.179 21.8276C130.929 22.3447 130.573 22.7548 130.11 23.0401C129.664 23.3254 129.129 23.468 128.523 23.468C127.596 23.468 126.848 23.1471 126.278 22.523C125.707 21.8811 125.422 21.0252 125.422 19.9732C125.422 19.2957 125.547 18.6894 125.814 18.1723C126.064 17.6553 126.42 17.2452 126.884 16.942C127.329 16.6567 127.882 16.5141 128.488 16.5141C129.414 16.5141 130.163 16.835 130.716 17.477C131.268 18.1189 131.553 18.9747 131.553 20.0267C131.571 20.7043 131.446 21.3105 131.179 21.8276Z" fill="#8759FF"/>
<path d="M149.287 16.5854C148.824 15.6047 148.147 14.838 147.273 14.3209C146.4 13.786 145.384 13.5186 144.225 13.5186C143.441 13.5186 142.746 13.6612 142.122 13.9287C141.499 14.1961 140.999 14.5884 140.643 15.0876V13.7147H137.167V31.3492H140.625V25.1441C140.946 25.5542 141.392 25.8752 141.98 26.107C142.568 26.3388 143.21 26.4636 143.94 26.4636C145.134 26.4636 146.186 26.1961 147.095 25.6612C148.004 25.1263 148.717 24.3774 149.216 23.3967C149.715 22.416 149.982 21.2749 149.982 19.9911C150 18.7073 149.751 17.5661 149.287 16.5854ZM146.168 21.8276C145.919 22.3447 145.562 22.7548 145.099 23.0401C144.653 23.3254 144.119 23.468 143.513 23.468C142.586 23.468 141.837 23.1471 141.267 22.523C140.696 21.8811 140.411 21.0252 140.411 19.9732C140.411 19.2957 140.554 18.6894 140.803 18.1723C141.053 17.6553 141.409 17.2452 141.873 16.942C142.318 16.6567 142.871 16.5141 143.477 16.5141C144.404 16.5141 145.152 16.835 145.705 17.477C146.257 18.1189 146.542 18.9747 146.542 20.0267C146.56 20.7043 146.436 21.3105 146.168 21.8276Z" fill="#8759FF"/>
</g>
<defs>
<clipPath id="clip0_5632_3280">
<rect width="150" height="36" fill="white" transform="translate(0 2)"/>
</clipPath>
</defs>
</svg>
