<svg width="228" height="41" viewBox="0 0 228 41" fill="none" xmlns="http://www.w3.org/2000/svg">
<path d="M13.3335 20.4999C13.3335 24.1818 16.3183 27.1666 20.0002 27.1666C23.6821 27.1666 26.6668 24.1818 26.6668 20.4999C26.6668 16.818 23.6821 13.8333 20.0002 13.8333M13.3335 20.4999C13.3335 16.818 16.3183 13.8333 20.0002 13.8333M13.3335 20.4999C13.3335 21.8185 13.7245 23.1074 14.457 24.2037C15.1896 25.3001 16.2308 26.1545 17.4489 26.6591C18.6671 27.1637 20.0076 27.2957 21.3008 27.0385C22.594 26.7813 23.7819 26.1463 24.7142 25.214C25.6466 24.2816 26.2815 23.0937 26.5387 21.8005C26.796 20.5073 26.6639 19.1669 26.1594 17.9487C25.6548 16.7305 24.8003 15.6893 23.704 14.9568C22.6076 14.2242 21.3187 13.8333 20.0002 13.8333M13.3335 20.4999H20.0002V13.8333" stroke="#585858" stroke-width="1.5" stroke-linecap="round" stroke-linejoin="round"/>
<path d="M41.6506 26H40.358L44.0966 15.8182H45.3693L49.108 26H47.8153L44.7727 17.429H44.6932L41.6506 26ZM42.1278 22.0227H47.3381V23.1165H42.1278V22.0227ZM50.6939 26V15.8182H54.1342C54.933 15.8182 55.5859 15.9624 56.093 16.2507C56.6035 16.5357 56.9813 16.9219 57.2266 17.4091C57.4718 17.8963 57.5945 18.4399 57.5945 19.0398C57.5945 19.6397 57.4718 20.1849 57.2266 20.6754C56.9846 21.166 56.6101 21.5571 56.103 21.8487C55.5959 22.1371 54.9463 22.2812 54.1541 22.2812H51.6882V21.1875H54.1143C54.6612 21.1875 55.1004 21.093 55.4318 20.9041C55.7633 20.7152 56.0036 20.46 56.1527 20.1385C56.3052 19.8137 56.3814 19.4474 56.3814 19.0398C56.3814 18.6321 56.3052 18.2675 56.1527 17.946C56.0036 17.6245 55.7616 17.3726 55.4268 17.1903C55.0921 17.0047 54.648 16.9119 54.0945 16.9119H51.9268V26H50.6939ZM60.8136 15.8182V26H59.5806V15.8182H60.8136ZM67.2232 26V15.8182H68.4561V20.8693H68.5755L73.1493 15.8182H74.7601L70.4846 20.4119L74.7601 26H73.2686L69.7289 21.267L68.4561 22.6989V26H67.2232ZM78.8381 26.1591C78.1023 26.1591 77.4676 25.9967 76.9339 25.6719C76.4036 25.3438 75.9943 24.8864 75.706 24.2997C75.4209 23.7098 75.2784 23.0237 75.2784 22.2415C75.2784 21.4593 75.4209 20.7699 75.706 20.1733C75.9943 19.5734 76.3954 19.1061 76.9091 18.7713C77.4261 18.4332 78.0294 18.2642 78.7188 18.2642C79.1165 18.2642 79.5092 18.3305 79.897 18.4631C80.2848 18.5956 80.6378 18.8111 80.956 19.1094C81.2741 19.4044 81.5277 19.7955 81.7166 20.2827C81.9055 20.7699 82 21.3698 82 22.0824V22.5795H76.1136V21.5653H80.8068C80.8068 21.1345 80.7206 20.75 80.5483 20.4119C80.3793 20.0739 80.1373 19.8071 79.8224 19.6115C79.5109 19.416 79.143 19.3182 78.7188 19.3182C78.2514 19.3182 77.8471 19.4342 77.5057 19.6662C77.1676 19.8949 76.9074 20.1932 76.7251 20.5611C76.5429 20.929 76.4517 21.3234 76.4517 21.7443V22.4205C76.4517 22.9972 76.5511 23.486 76.75 23.8871C76.9522 24.2848 77.2322 24.5881 77.5902 24.7969C77.9482 25.0024 78.3641 25.1051 78.8381 25.1051C79.1463 25.1051 79.4247 25.062 79.6733 24.9759C79.9252 24.8864 80.1423 24.7538 80.3246 24.5781C80.5069 24.3991 80.6477 24.1771 80.7472 23.9119L81.8807 24.2301C81.7614 24.6146 81.5608 24.9527 81.2791 25.2443C80.9974 25.5327 80.6494 25.758 80.2351 25.9205C79.8208 26.0795 79.3551 26.1591 78.8381 26.1591ZM84.3081 28.8636C84.1092 28.8636 83.9319 28.8471 83.7761 28.8139C83.6203 28.7841 83.5126 28.7543 83.4529 28.7244L83.7512 27.6903C84.0363 27.7633 84.2882 27.7898 84.5069 27.7699C84.7257 27.75 84.9196 27.6522 85.0886 27.4766C85.2609 27.3042 85.4184 27.0241 85.5609 26.6364L85.7797 26.0398L82.9558 18.3636H84.2285L86.3365 24.4489H86.416L88.524 18.3636H89.7967L86.5552 27.1136C86.4094 27.508 86.2288 27.8345 86.0133 28.093C85.7979 28.3549 85.5476 28.5488 85.2626 28.6747C84.9809 28.8007 84.6627 28.8636 84.3081 28.8636ZM96.7544 20.0739L95.7005 20.3722C95.6342 20.1965 95.5364 20.0258 95.4071 19.8601C95.2812 19.6911 95.1088 19.5518 94.8901 19.4425C94.6713 19.3331 94.3913 19.2784 94.0499 19.2784C93.5826 19.2784 93.1931 19.3861 92.8816 19.6016C92.5733 19.8137 92.4192 20.0838 92.4192 20.4119C92.4192 20.7036 92.5253 20.9339 92.7374 21.103C92.9495 21.272 93.281 21.4129 93.7317 21.5256L94.8652 21.804C95.548 21.9697 96.0568 22.2232 96.3915 22.5646C96.7263 22.9027 96.8936 23.3385 96.8936 23.8722C96.8936 24.3097 96.7677 24.7008 96.5158 25.0455C96.2672 25.3902 95.9192 25.6619 95.4718 25.8608C95.0243 26.0597 94.504 26.1591 93.9107 26.1591C93.1318 26.1591 92.4872 25.9901 91.9767 25.652C91.4663 25.3139 91.1432 24.8201 91.0073 24.1705L92.1209 23.892C92.227 24.303 92.4275 24.6113 92.7225 24.8168C93.0208 25.0223 93.4102 25.125 93.8908 25.125C94.4377 25.125 94.8719 25.009 95.1934 24.777C95.5182 24.5417 95.6806 24.2599 95.6806 23.9318C95.6806 23.6667 95.5878 23.4446 95.4022 23.2656C95.2166 23.0833 94.9315 22.9474 94.5471 22.858L93.2743 22.5597C92.575 22.3939 92.0613 22.1371 91.7331 21.7891C91.4083 21.4377 91.2459 20.9986 91.2459 20.4716C91.2459 20.0407 91.3669 19.6596 91.6088 19.3281C91.8541 18.9967 92.1872 18.7365 92.6081 18.5476C93.0324 18.3587 93.513 18.2642 94.0499 18.2642C94.8056 18.2642 95.3989 18.4299 95.8297 18.7614C96.2639 19.0928 96.5721 19.5303 96.7544 20.0739Z" fill="#585858"/>
</svg>
