<svg width="16" height="15" viewBox="0 0 16 15" fill="none" xmlns="http://www.w3.org/2000/svg">
<path d="M1.3335 7.49992C1.3335 11.1818 4.31826 14.1666 8.00016 14.1666C11.6821 14.1666 14.6668 11.1818 14.6668 7.49992C14.6668 3.81802 11.6821 0.833252 8.00016 0.833252M1.3335 7.49992C1.3335 3.81802 4.31826 0.833252 8.00016 0.833252M1.3335 7.49992C1.3335 8.81845 1.72449 10.1074 2.45703 11.2037C3.18958 12.3001 4.23076 13.1545 5.44893 13.6591C6.66713 14.1637 8.00756 14.2957 9.30076 14.0385C10.594 13.7813 11.7819 13.1463 12.7142 12.214C13.6466 11.2816 14.2815 10.0937 14.5387 8.80052C14.796 7.50732 14.6639 6.16689 14.1594 4.94869C13.6548 3.73052 12.8003 2.68933 11.704 1.95679C10.6076 1.22425 9.3187 0.833252 8.00016 0.833252M1.3335 7.49992H8.00016V0.833252" stroke="#585858" stroke-width="1.5" stroke-linecap="round" stroke-linejoin="round"/>
</svg>
