<svg  viewBox="0 0 22 22" fill="none" xmlns="http://www.w3.org/2000/svg">
<g clip-path="url(#clip0_5197_2671)">
<path d="M10.6006 0.566895C5.08659 0.566895 0.600586 5.05289 0.600586 10.5669C0.600586 16.0809 5.08659 20.5669 10.6006 20.5669C16.1146 20.5669 20.6006 16.0809 20.6006 10.5669C20.6006 5.05289 16.1146 0.566895 10.6006 0.566895ZM10.6006 18.5669C6.18959 18.5669 2.60059 14.9779 2.60059 10.5669C2.60059 6.15589 6.18959 2.56689 10.6006 2.56689C15.0116 2.56689 18.6006 6.15589 18.6006 10.5669C18.6006 14.9779 15.0116 18.5669 10.6006 18.5669Z" fill="#060535"/>
<path d="M11.8935 4.85986L6.18652 10.5669L11.8935 16.2739L13.3075 14.8599L9.01452 10.5669L13.3075 6.27386L11.8935 4.85986Z" fill="#060535"/>
</g>
<defs>
<clipPath id="clip0_5197_2671">
<rect width="21" height="21" fill="white" transform="translate(0.333008 0.5)"/>
</clipPath>
</defs>
</svg>
