<svg width="16" height="17" viewBox="0 0 16 17" fill="none" xmlns="http://www.w3.org/2000/svg">
<path fill-rule="evenodd" clip-rule="evenodd" d="M3 3C2.72386 3 2.5 3.22386 2.5 3.5V13.5C2.5 13.7761 2.72386 14 3 14H13C13.2761 14 13.5 13.7761 13.5 13.5V3.5C13.5 3.22386 13.2761 3 13 3H3ZM1.5 3.5C1.5 2.67157 2.17157 2 3 2H13C13.8284 2 14.5 2.67157 14.5 3.5V13.5C14.5 14.3284 13.8284 15 13 15H3C2.17157 15 1.5 14.3284 1.5 13.5V3.5Z" fill="#585858"/>
<path fill-rule="evenodd" clip-rule="evenodd" d="M5.3335 2C5.60964 2 5.8335 2.22386 5.8335 2.5V14.5C5.8335 14.7761 5.60964 15 5.3335 15C5.05735 15 4.8335 14.7761 4.8335 14.5V2.5C4.8335 2.22386 5.05735 2 5.3335 2Z" fill="#585858"/>
<path fill-rule="evenodd" clip-rule="evenodd" d="M3.8335 14.5C3.8335 14.2239 4.05735 14 4.3335 14H6.3335C6.60964 14 6.8335 14.2239 6.8335 14.5C6.8335 14.7761 6.60964 15 6.3335 15H4.3335C4.05735 15 3.8335 14.7761 3.8335 14.5Z" fill="#585858"/>
<path fill-rule="evenodd" clip-rule="evenodd" d="M3.8335 2.5C3.8335 2.22386 4.05735 2 4.3335 2H6.3335C6.60964 2 6.8335 2.22386 6.8335 2.5C6.8335 2.77614 6.60964 3 6.3335 3H4.3335C4.05735 3 3.8335 2.77614 3.8335 2.5Z" fill="#585858"/>
</svg>
