<svg  viewBox="0 0 22 22" fill="none" xmlns="http://www.w3.org/2000/svg">
<g clip-path="url(#clip0_5197_2675)">
<path d="M10.7334 0.566895C5.2194 0.566895 0.733398 5.05289 0.733398 10.5669C0.733398 16.0809 5.2194 20.5669 10.7334 20.5669C16.2474 20.5669 20.7334 16.0809 20.7334 10.5669C20.7334 5.05289 16.2474 0.566895 10.7334 0.566895ZM10.7334 18.5669C6.3224 18.5669 2.7334 14.9779 2.7334 10.5669C2.7334 6.15589 6.3224 2.56689 10.7334 2.56689C15.1444 2.56689 18.7334 6.15589 18.7334 10.5669C18.7334 14.9779 15.1444 18.5669 10.7334 18.5669Z" fill="#060535"/>
<path d="M8.02637 6.27386L12.3194 10.5669L8.02637 14.8599L9.44037 16.2739L15.1474 10.5669L9.44037 4.85986L8.02637 6.27386Z" fill="#060535"/>
</g>
<defs>
<clipPath id="clip0_5197_2675">
<rect width="21" height="21" fill="white" transform="translate(0.333008 0.5)"/>
</clipPath>
</defs>
</svg>
