<svg  viewBox="0 0 14 14" fill="none" xmlns="http://www.w3.org/2000/svg">
<path d="M6.4752 6.47495L6.5039 6.46095C6.59366 6.41611 6.69439 6.39793 6.79416 6.40856C6.89394 6.41919 6.98857 6.4582 7.06687 6.52095C7.14516 6.5837 7.20383 6.66758 7.23593 6.76264C7.26803 6.85771 7.27222 6.95998 7.248 7.05735L6.7524 9.04255C6.728 9.13997 6.73205 9.24234 6.76408 9.33753C6.79611 9.43271 6.85476 9.51671 6.93309 9.57957C7.01142 9.64242 7.10613 9.68149 7.20599 9.69214C7.30585 9.70279 7.40667 9.68457 7.4965 9.63965L7.5252 9.62495M13.3002 6.99995C13.3002 7.82728 13.1372 8.64651 12.8206 9.41086C12.504 10.1752 12.04 10.8697 11.455 11.4547C10.87 12.0397 10.1755 12.5038 9.4111 12.8204C8.64675 13.137 7.82752 13.3 7.0002 13.3C6.17287 13.3 5.35364 13.137 4.58929 12.8204C3.82494 12.5038 3.13043 12.0397 2.54542 11.4547C1.96041 10.8697 1.49636 10.1752 1.17975 9.41086C0.86315 8.64651 0.700195 7.82728 0.700195 6.99995C0.700195 5.32909 1.36394 3.72666 2.54542 2.54518C3.7269 1.3637 5.32933 0.699951 7.0002 0.699951C8.67106 0.699951 10.2735 1.3637 11.455 2.54518C12.6364 3.72666 13.3002 5.32909 13.3002 6.99995ZM7.0002 4.37495H7.0058V4.38055H7.0002V4.37495Z" stroke="black" stroke-linecap="round" stroke-linejoin="round"/>
</svg>
