<svg width="16" height="17" viewBox="0 0 16 17" fill="none" xmlns="http://www.w3.org/2000/svg">
<path fill-rule="evenodd" clip-rule="evenodd" d="M8.00016 2.33325C6.80355 2.33325 5.8335 3.3033 5.8335 4.49992C5.8335 5.69654 6.80355 6.66658 8.00016 6.66658C9.19678 6.66658 10.1668 5.69654 10.1668 4.49992C10.1668 3.3033 9.19678 2.33325 8.00016 2.33325ZM4.8335 4.49992C4.8335 2.75102 6.25126 1.33325 8.00016 1.33325C9.74906 1.33325 11.1668 2.75102 11.1668 4.49992C11.1668 6.24882 9.74906 7.66658 8.00016 7.66658C6.25126 7.66658 4.8335 6.24882 4.8335 4.49992Z" fill="#585858"/>
<path fill-rule="evenodd" clip-rule="evenodd" d="M1.5 15.1667C1.5 11.5769 4.41016 8.66675 8 8.66675C11.5898 8.66675 14.5 11.5769 14.5 15.1667C14.5 15.4429 14.2761 15.6667 14 15.6667C13.7239 15.6667 13.5 15.4429 13.5 15.1667C13.5 12.1292 11.0376 9.66675 8 9.66675C4.96244 9.66675 2.5 12.1292 2.5 15.1667C2.5 15.4429 2.27614 15.6667 2 15.6667C1.72386 15.6667 1.5 15.4429 1.5 15.1667Z" fill="#585858"/>
</svg>
