<svg width="18" height="18" viewBox="0 0 18 18" fill="none" xmlns="http://www.w3.org/2000/svg">
<path fill-rule="evenodd" clip-rule="evenodd" d="M1.25581 8.5814C1.25581 4.53559 4.53559 1.25581 8.5814 1.25581C12.6272 1.25581 15.907 4.53559 15.907 8.5814C15.907 10.4263 15.225 12.112 14.0993 13.3999C13.9143 13.3775 13.7212 13.4373 13.5793 13.5793C13.4373 13.7212 13.3775 13.9143 13.3999 14.0993C12.112 15.225 10.4263 15.907 8.5814 15.907C4.53559 15.907 1.25581 12.6272 1.25581 8.5814ZM14.1892 15.0772C12.6852 16.3768 10.7251 17.1628 8.5814 17.1628C3.84202 17.1628 0 13.3208 0 8.5814C0 3.84202 3.84202 0 8.5814 0C13.3208 0 17.1628 3.84202 17.1628 8.5814C17.1628 10.7251 16.3768 12.6852 15.0772 14.1892L17.8161 16.9281C18.0613 17.1733 18.0613 17.5709 17.8161 17.8161C17.5709 18.0613 17.1733 18.0613 16.9281 17.8161L14.1892 15.0772Z" fill="#131313"/>
</svg>
