<svg width="16" height="17" viewBox="0 0 16 17" fill="none" xmlns="http://www.w3.org/2000/svg">
<path fill-rule="evenodd" clip-rule="evenodd" d="M2.93257 3.43232C4.22894 2.13596 6.0213 1.33325 8.00016 1.33325C9.97903 1.33325 11.7714 2.13596 13.0677 3.43232L12.7142 3.78587L13.0678 3.43232C14.3641 4.7287 15.1668 6.52105 15.1668 8.49992C15.1668 10.4788 14.3641 12.2711 13.0678 13.5675C11.7714 14.8639 9.97903 15.6666 8.00016 15.6666C6.02129 15.6666 4.22894 14.8639 2.93256 13.5675L3.28612 13.214L2.93256 13.5675C1.6362 12.2711 0.833496 10.4788 0.833496 8.49992C0.833496 6.52105 1.6362 4.7287 2.93256 3.43232L2.93257 3.43232ZM8.00016 2.33325C6.29716 2.33325 4.75618 3.02293 3.63967 4.13943C2.52317 5.25594 1.8335 6.79692 1.8335 8.49992C1.8335 10.2029 2.52318 11.7439 3.63967 12.8604C4.75618 13.9769 6.29717 14.6666 8.00016 14.6666C9.70316 14.6666 11.2441 13.9769 12.3606 12.8604C13.4771 11.7439 14.1668 10.2029 14.1668 8.49992C14.1668 6.79692 13.4771 5.25594 12.3606 4.13943C11.2441 3.02293 9.70316 2.33325 8.00016 2.33325Z" fill="#585858"/>
<path fill-rule="evenodd" clip-rule="evenodd" d="M5.5 6.70825C5.5 5.32754 6.61929 4.20825 8 4.20825C9.38071 4.20825 10.5 5.32754 10.5 6.70825C10.5 7.91773 9.64112 8.92661 8.5 9.15824V10.0416C8.5 10.3177 8.27614 10.5416 8 10.5416C7.72386 10.5416 7.5 10.3177 7.5 10.0416V8.70825C7.5 8.43211 7.72386 8.20825 8 8.20825C8.82842 8.20825 9.5 7.53668 9.5 6.70825C9.5 5.87983 8.82842 5.20825 8 5.20825C7.17158 5.20825 6.5 5.87983 6.5 6.70825C6.5 6.9844 6.27614 7.20825 6 7.20825C5.72386 7.20825 5.5 6.9844 5.5 6.70825Z" fill="#585858"/>
<path fill-rule="evenodd" clip-rule="evenodd" d="M7.99984 13.0417C8.46007 13.0417 8.83317 12.6686 8.83317 12.2083C8.83317 11.7481 8.46007 11.375 7.99984 11.375C7.5396 11.375 7.1665 11.7481 7.1665 12.2083C7.1665 12.6686 7.5396 13.0417 7.99984 13.0417Z" fill="#585858"/>
</svg>
