<svg  viewBox="0 0 28 28" fill="none" xmlns="http://www.w3.org/2000/svg">
<path d="M21.5 13.3749H15.2225C14.945 13.3003 14.6662 13.2305 14.3863 13.1655C12.6312 12.7505 11.6388 12.4468 11.6388 11.0261C11.6245 10.7809 11.6608 10.5354 11.7454 10.3047C11.83 10.0741 11.9612 9.86335 12.1306 9.68552C12.6615 9.24896 13.3264 9.0084 14.0137 9.00427C15.7825 8.96052 16.5981 9.56052 17.265 10.473L18.2744 9.73552C17.8019 9.05699 17.1578 8.51605 16.4078 8.16796C15.6578 7.81987 14.8288 7.67711 14.0056 7.75427C12.9944 7.76072 12.0189 8.12898 11.2556 8.79239C10.9663 9.08583 10.7402 9.43541 10.5913 9.81959C10.4423 10.2038 10.3736 10.6144 10.3894 11.0261C10.362 11.4767 10.4466 11.927 10.6357 12.3369C10.8248 12.7467 11.1125 13.1034 11.4731 13.3749H6.5V14.6249H15.0325C16.2619 14.9811 16.9969 15.4449 17.0156 16.7236C17.0359 16.9968 16.9985 17.2712 16.9056 17.5289C16.8128 17.7866 16.6667 18.0218 16.4769 18.2193C15.8155 18.7406 14.9938 19.0165 14.1519 18.9999C13.5234 18.9817 12.9074 18.8208 12.3503 18.5294C11.7932 18.2381 11.3097 17.8238 10.9362 17.318L9.97812 18.1205C10.4636 18.7675 11.0899 19.2954 11.8097 19.6643C12.5295 20.0333 13.3238 20.2335 14.1325 20.2499H14.195C15.3492 20.2632 16.4695 19.8595 17.35 19.113C17.6625 18.7979 17.9054 18.4208 18.0632 18.006C18.2209 17.5913 18.2898 17.148 18.2656 16.7049C18.289 15.9469 18.0332 15.2068 17.5469 14.6249H21.5V13.3749Z" fill="#212529"/>
</svg>
