<svg width="36" height="36" viewBox="0 0 36 36" fill="none" xmlns="http://www.w3.org/2000/svg">
<path d="M17.9658 0C8.03826 0 0 8.07727 0 17.9911C0 27.9049 8.03826 36 17.9658 36C27.9289 36 35.9672 27.9227 35.9672 17.9911C36.0029 8.07727 27.9111 0 17.9658 0ZM26.8774 27.5305C26.8774 28.5468 26.0753 29.367 25.0594 29.367L21.4769 29.3314H10.2662C9.62452 29.3314 9.08983 28.7964 9.08983 28.1545V24.7667C9.07201 24.2853 9.39282 23.8217 9.89187 23.6612L21.4948 19.8098L22.5998 16.1545C22.7602 15.6731 23.2236 15.3522 23.7405 15.3522H25.7367C26.3961 15.3522 26.913 15.8871 26.913 16.529L26.8774 27.5305ZM26.8774 11.2333C26.8952 11.7682 26.5566 12.1961 26.0753 12.3566L14.4903 16.2437L13.3674 19.8633C13.2248 20.3626 12.7614 20.7013 12.2624 20.7013H10.2662C9.62452 20.7013 9.08983 20.1664 9.08983 19.5245L9.07201 12.0892V8.46954C9.08983 7.47103 9.9097 6.66865 10.9078 6.65082L14.4903 6.66865L25.6832 6.68648C26.3427 6.68648 26.8952 7.23923 26.8952 7.89896L26.8774 11.2333Z" fill="#8759FF"/>
</svg>
